<?xml version="1.0" standalone="no"?>
<!DOCTYPE svg PUBLIC "-//W3C//DTD SVG 20010904//EN"
 "http://www.w3.org/TR/2001/REC-SVG-20010904/DTD/svg10.dtd">
<svg version="1.0" xmlns="http://www.w3.org/2000/svg"
 width="512.000000pt" height="512.000000pt" viewBox="0 0 512.000000 512.000000"
 preserveAspectRatio="xMidYMid meet">
<metadata>
Created by potrace 1.14, written by Peter Selinger 2001-2017
</metadata>
<g transform="translate(0.000000,512.000000) scale(0.100000,-0.100000)"
fill="#000000" stroke="none">
<path d="M2365 4234 c-197 -30 -368 -80 -523 -154 -899 -429 -1233 -1536 -720
-2386 l55 -92 -83 -303 c-46 -166 -81 -305 -79 -308 3 -2 145 33 316 77 l312
82 77 -45 c405 -237 917 -289 1370 -139 573 190 995 669 1122 1271 20 94 23
136 23 328 -1 246 -14 334 -81 534 -164 493 -562 891 -1055 1055 -186 62 -281
77 -504 81 -110 2 -213 1 -230 -1z m-376 -747 c39 -20 57 -52 136 -242 114
-273 111 -258 81 -319 -14 -28 -53 -82 -86 -120 -72 -84 -75 -104 -24 -184
161 -251 386 -443 642 -546 59 -24 76 -27 96 -18 13 6 67 64 119 130 53 66
104 122 113 126 28 11 83 -11 301 -118 237 -117 231 -111 219 -214 -17 -146
-59 -217 -171 -293 -99 -68 -162 -90 -275 -96 -80 -5 -112 -1 -203 21 -121 29
-347 111 -449 162 -197 99 -425 293 -604 514 -338 417 -425 708 -295 975 47
95 129 191 186 216 47 22 177 26 214 6z"/>
</g>
</svg>
